<?xml version="1.0" standalone="no"?>
<!DOCTYPE svg PUBLIC "-//W3C//DTD SVG 20010904//EN"
 "http://www.w3.org/TR/2001/REC-SVG-20010904/DTD/svg10.dtd">
<svg version="1.0" xmlns="http://www.w3.org/2000/svg"
 width="1024.000000pt" height="1024.000000pt" viewBox="0 0 1024.000000 1024.000000"
 preserveAspectRatio="xMidYMid meet">
<metadata>
Created by potrace 1.14, written by Peter Selinger 2001-2017
</metadata>
<g transform="translate(0.000000,1024.000000) scale(0.100000,-0.100000)"
fill="#000000" stroke="none">
<path d="M5010 8284 c-353 -93 -531 -498 -370 -842 90 -192 280 -364 453 -409
55 -15 72 -15 121 -4 122 27 256 116 361 240 172 204 219 478 118 698 -67 147
-222 278 -377 319 -66 18 -236 17 -306 -2z"/>
<path d="M7555 8216 c-133 -27 -215 -67 -302 -149 -58 -55 -78 -100 -68 -155
6 -32 55 -86 363 -395 196 -197 369 -365 384 -373 37 -19 72 -18 117 6 84 42
181 189 216 325 33 128 14 296 -48 425 -41 87 -168 215 -254 259 -120 60 -278
82 -408 57z"/>
<path d="M4290 8000 c-118 -24 -243 -64 -395 -125 -400 -161 -754 -393 -1051
-689 -405 -406 -667 -878 -788 -1423 -50 -223 -66 -358 -73 -589 -12 -433 66
-844 237 -1244 275 -644 798 -1198 1460 -1548 97 -52 269 -126 276 -120 2 2
-23 19 -54 38 -149 87 -259 229 -299 383 -11 45 -14 89 -10 163 5 100 7 110
73 260 3 6 -39 41 -93 77 -170 113 -391 323 -514 489 -333 449 -506 1028 -469
1573 24 360 90 614 233 904 248 504 684 901 1217 1106 47 18 99 36 115 39 29
6 30 5 54 -61 127 -362 440 -686 766 -795 99 -33 259 -33 365 0 149 47 310
151 433 282 129 136 201 256 258 429 17 53 54 141 83 196 42 81 68 116 141
191 75 76 105 99 180 136 50 24 111 51 138 58 26 8 47 17 47 21 0 8 -210 107
-310 147 -154 61 -360 118 -360 99 0 -5 11 -40 24 -77 115 -317 5 -658 -307
-957 -108 -103 -215 -172 -326 -210 -101 -35 -243 -38 -343 -6 -294 92 -606
451 -675 777 -24 116 -14 278 26 395 17 52 30 95 29 96 -2 1 -41 -5 -88 -15z"/>
<path d="M6955 7591 c-28 -13 -341 -320 -1047 -1029 l-1008 -1011 -20 -133
c-30 -198 -121 -900 -117 -904 7 -7 881 294 953 327 26 13 130 110 300 282
1299 1312 1681 1702 1697 1735 20 43 15 93 -13 132 -10 14 -101 106 -202 205
-100 99 -228 226 -284 282 -131 133 -175 153 -259 114z m-151 -723 c15 -13 29
-38 32 -56 7 -35 48 8 -826 -873 -107 -108 -260 -263 -339 -343 -120 -123
-148 -146 -173 -146 -41 0 -88 48 -88 91 0 29 30 62 289 323 158 160 452 456
652 659 328 331 367 367 396 367 19 0 42 -9 57 -22z m-1639 -1553 c24 -66 64
-124 121 -174 46 -40 135 -81 178 -81 37 0 39 -13 4 -27 -32 -14 -386 -133
-394 -133 -8 0 -4 38 28 258 17 122 35 219 38 215 4 -5 15 -30 25 -58z"/>
<path d="M3810 6800 c-88 -9 -200 -46 -275 -91 -71 -43 -185 -159 -230 -234
-20 -33 -48 -96 -62 -140 -23 -69 -26 -97 -26 -200 0 -105 3 -130 28 -204 74
-218 258 -391 475 -446 86 -22 236 -23 320 -2 36 10 103 36 150 58 69 34 101
58 170 128 51 52 98 110 117 146 145 277 89 597 -142 813 -144 135 -318 192
-525 172z m229 -385 c97 -54 152 -141 159 -256 6 -102 -14 -163 -79 -233 -83
-91 -199 -125 -314 -91 -237 68 -312 351 -141 527 67 69 121 88 236 85 72 -3
93 -7 139 -32z"/>
<path d="M7732 6513 c-81 -92 -220 -233 -306 -309 l-78 -70 25 -50 c71 -141
152 -421 182 -624 68 -479 -17 -1008 -236 -1450 -76 -154 -206 -354 -309 -475
-149 -176 -417 -413 -532 -471 -26 -13 -49 -24 -52 -24 -2 0 -10 16 -16 35
-16 47 -57 95 -97 111 -40 17 -111 18 -139 1 -11 -7 -195 -188 -408 -404 -263
-266 -402 -399 -430 -413 -54 -25 -118 -26 -170 0 -27 13 -162 143 -385 370
-233 237 -357 356 -385 370 -113 54 -268 1 -346 -120 -32 -49 -60 -144 -60
-200 0 -58 28 -148 61 -196 78 -113 581 -602 684 -663 185 -112 425 -132 625
-54 73 29 178 95 230 146 31 30 49 37 160 61 157 35 440 129 586 195 746 336
1330 949 1627 1706 224 570 273 1133 152 1731 -34 169 -93 371 -142 489 -72
174 -168 365 -183 365 -4 0 -30 -26 -58 -57z"/>
<path d="M6855 5174 c-46 -14 -87 -52 -515 -482 -256 -257 -640 -644 -854
-860 -214 -216 -398 -400 -410 -408 -11 -7 -36 -14 -56 -14 -32 0 -45 10 -140
108 -128 133 -145 145 -213 146 -63 0 -106 -22 -151 -77 -27 -33 -31 -47 -31
-96 0 -44 5 -63 23 -86 13 -17 174 -182 359 -367 330 -333 336 -338 376 -338
40 0 43 3 1006 971 531 535 978 990 993 1012 81 122 58 307 -51 416 -81 81
-217 112 -336 75z"/>
<path d="M3757 4915 c-247 -47 -452 -236 -516 -475 -28 -109 -34 -177 -21
-272 20 -147 83 -269 196 -384 57 -58 90 -81 165 -117 121 -58 181 -72 304
-71 269 2 493 142 605 379 50 106 65 171 64 285 -1 117 -21 198 -76 310 -127
255 -430 400 -721 345z m235 -355 c59 -16 138 -87 173 -155 119 -232 -77 -503
-330 -456 -238 44 -344 315 -198 505 81 105 212 144 355 106z"/>
</g>
</svg>
